#!OML:ASF F:\VICON\USERDATA\INSTALL\rory3\rory3.ASF
:FULLY-SPECIFIED
:DEGREES
126
root 14.4499 17.9977 -10.037 1.33328 -48.1864 -0.0091431
lowerback 8.88393 0.472423 -0.149371
upperback -0.481436 0.648143 0.70668
thorax -5.49989 0.332286 0.733519
lowerneck -22.2174 -3.91531 -9.593
upperneck 27.4083 -3.98706 5.57137
head 13.2434 -2.05605 3.08217
rclavicle 2.39287e-014 -5.36719e-015
rhumerus -34.3601 -11.8249 -83.0828
rradius 28.5015
rwrist 12.963
rhand -11.0573 8.7984
rfingers 7.12502
rthumb 14.9653 -20.6409
lclavicle 2.39287e-014 -5.36719e-015
lhumerus -36.5499 5.26308 84.1289
lradius 29.8976
lwrist -11.0878
lhand -15.5088 27.1529
lfingers 7.12502
lthumb 10.674 56.8618
rfemur -8.21502 2.44458 26.4197
rtibia 32.5168
rfoot -22.1091 -5.65212
rtoes 9.73679
lfemur -14.4753 -2.4239 -19.8106
ltibia 44.0754
lfoot -13.6172 3.0115
ltoes -7.06411
127
root 14.4308 17.9965 -10.0442 1.36701 -48.0598 0.0451352
lowerback 8.96654 0.460661 -0.220961
upperback -0.467198 0.626551 0.739832
thorax -5.53253 0.324129 0.81085
lowerneck -22.0828 -3.7215 -9.5009
upperneck 27.5702 -3.73727 5.48473
head 13.2542 -1.95502 3.08146
rclavicle -4.57205e-014 1.53064e-014
rhumerus -34.303 -11.9577 -82.915
rradius 28.4392
rwrist 13.1669
rhand -10.8902 9.03147
rfingers 7.12502
rthumb 15.1263 -20.3958
lclavicle -4.57205e-014 1.53064e-014
lhumerus -36.7507 5.61072 84.0235
lradius 30.294
lwrist -11.2083
lhand -15.3517 27.2435
lfingers 7.12502
lthumb 10.8255 56.9445
rfemur -8.22547 2.39225 26.4307
rtibia 32.4666
rfoot -22.177 -5.6311
rtoes 10.0727
lfemur -15.3196 -2.2701 -19.7503
ltibia 45.3021
lfoot -12.9657 2.5616
ltoes -6.894
128
root 14.4105 17.9951 -10.0417 1.34786 -47.9778 -0.0332004
lowerback 9.088 0.518441 -0.0656915
upperback -0.355046 0.717652 0.71631
thorax -5.48267 0.363516 0.685972
lowerneck -22.0279 -3.70938 -9.52101
upperneck 27.5884 -3.77647 5.66142
head 13.2579 -1.95113 3.14901
rclavicle 7.05686e-014 -6.75868e-015
rhumerus -34.2849 -11.9974 -82.871
rradius 28.5277
rwrist 13.0036
rhand -11.0208 9.03783
rfingers 7.12502
rthumb 15.0005 -20.3988
lclavicle 7.05686e-014 -6.75868e-015
lhumerus -36.8034 5.7359 83.9683
lradius 30.4935
lwrist -11.1863
lhand -16.0783 27.4067
lfingers 7.12502
lthumb 10.1246 57.1431
rfemur -8.02713 2.1378 26.4906
rtibia 32.3893
rfoot -22.312 -5.35384
rtoes 10.4457
lfemur -15.9853 -2.26985 -19.6308
ltibia 46.509
lfoot -12.3843 2.32811
ltoes -6.0019
129
root 14.3871 17.9887 -10.038 1.47602 -47.9368 -0.355929
lowerback 9.20871 0.552238 0.274688
upperback -0.210681 0.797275 0.708493
thorax -5.39558 0.392408 0.474892
lowerneck -21.8978 -3.76515 -9.5264
upperneck 27.3316 -3.88383 5.75073
head 13.1371 -1.98258 3.16072
rclavicle 4.49999e-014 -1.92821e-014
rhumerus -34.2339 -12.0042 -82.9243
rradius 28.6525
rwrist 12.8545
rhand -10.9622 9.1238
rfingers 7.12502
rthumb 15.0569 -20.3087
lclavicle 4.49999e-014 -1.92821e-014
lhumerus -36.7287 5.83374 83.9248
lradius 30.5222
lwrist -10.9089
lhand -16.8843 26.9723
lfingers 7.12502
lthumb 9.34695 56.7451
rfemur -7.79936 1.78506 26.7407
rtibia 32.3338
rfoot -22.3824 -5.16169
rtoes 9.79491
lfemur -16.6484 -2.6376 -19.2768
ltibia 47.6949
lfoot -11.9791 2.07187
ltoes -2.81417
130
root 14.3672 17.9755 -10.0403 1.71936 -47.9146 -0.745436
lowerback 9.37122 0.540349 0.521271
upperback -0.129934 0.812772 0.79945
thorax -5.4006 0.393988 0.427725
lowerneck -21.9267 -3.76102 -9.54735
upperneck 27.3102 -3.88104 5.8002
head 13.1355 -1.97568 3.18395
rclavicle 7.32273e-014 -7.95139e-015
rhumerus -34.1911 -11.8047 -82.9146
rradius 28.7832
rwrist 12.6953
rhand -10.4936 9.31256
rfingers 7.12502
rthumb 15.5083 -20.0855
lclavicle 7.32273e-014 -7.95139e-015
lhumerus -36.7118 5.83991 83.9842
lradius 30.6042
lwrist -10.5245
lhand -16.8247 26.4129
lfingers 7.12502
lthumb 9.40449 56.1831
rfemur -7.6067 1.68584 27.0876
rtibia 32.1503
rfoot -22.1665 -5.41397
rtoes 7.47426
lfemur -17.3885 -2.54024 -18.8216
ltibia 48.7691
lfoot -11.8318 1.56088
ltoes -2.69797
131
root 14.3497 17.9535 -10.0377 1.90653 -48.1375 -1.11691
lowerback 9.61204 0.662156 0.753689
upperback -0.0830514 1.00761 0.90434
thorax -5.486 0.484252 0.376836
lowerneck -21.8713 -3.83994 -9.69161
upperneck 27.2953 -3.9704 5.8733
head 13.1325 -2.02063 3.22119
rclavicle -1.40417e-013 2.78299e-015
rhumerus -34.2564 -11.4722 -82.8958
rradius 28.9087
rwrist 12.4294
rhand -10.6874 9.17376
rfingers 7.12502
rthumb 15.3216 -20.2387
lclavicle -1.40417e-013 2.78299e-015
lhumerus -36.7229 5.53315 84.2046
lradius 30.6377
lwrist -10.2428
lhand -16.6811 26.5093
lfingers 7.12502
lthumb 9.54303 56.2732
rfemur -7.33559 1.73535 27.3748
rtibia 31.9012
rfoot -21.8526 -5.54673
rtoes 5.15793
lfemur -18.0684 -1.83402 -18.4303
ltibia 49.7366
lfoot -11.8906 0.724041
ltoes -4.61268
132
root 14.3242 17.9697 -10.0277 2.06776 -48.4499 -1.52538
lowerback 9.88874 0.794043 1.01329
upperback -0.0237671 1.22216 1.0425
thorax -5.57786 0.583493 0.341114
lowerneck -21.6906 -3.87829 -9.94763
upperneck 27.1492 -3.97036 5.95818
head 13.0446 -2.03597 3.29542
rclavicle 7.65321e-015 -1.33186e-014
rhumerus -34.3488 -10.887 -82.9326
rradius 29.0817
rwrist 11.981
rhand -11.1606 8.93613
rfingers 7.12502
rthumb 14.8658 -20.5105
lclavicle 7.65321e-015 -1.33186e-014
lhumerus -36.8924 5.39596 84.4248
lradius 30.8384
lwrist -10.1279
lhand -16.8527 26.7034
lfingers 7.12502
lthumb 9.37751 56.4748
rfemur -6.91151 1.68042 27.6299
rtibia 31.5529
rfoot -21.897 -5.27391
rtoes 4.51374
lfemur -18.509 -1.55237 -18.097
ltibia 50.4763
lfoot -12.1227 -0.0671186
ltoes -5.10707
133
root 14.2953 17.9848 -10.0182 2.10207 -48.6486 -1.64948
lowerback 9.99474 0.866403 1.09088
upperback 0.0636752 1.3284 1.07299
thorax -5.54464 0.633808 0.312936
lowerneck -21.4865 -3.82883 -9.97825
upperneck 26.9204 -3.9138 6.00651
head 12.9052 -2.00619 3.32506
rclavicle 8.49804e-014 -7.95139e-015
rhumerus -34.2936 -10.5777 -82.9989
rradius 29.1445
rwrist 11.7619
rhand -11.0718 8.86653
rfingers 7.12502
rthumb 14.9513 -20.5738
lclavicle 8.49804e-014 -7.95139e-015
lhumerus -37.0585 5.62516 84.356
lradius 31.0951
lwrist -10.4052
lhand -16.9192 26.8214
lfingers 7.12502
lthumb 9.31327 56.5956
rfemur -6.57246 1.52766 27.6913
rtibia 31.1937
rfoot -22.0132 -4.95526
rtoes 4.6372
lfemur -18.9822 -1.81879 -17.9916
ltibia 51.0431
lfoot -12.4477 -0.836392
ltoes -4.01433
134
root 14.2666 17.9878 -10.0126 2.19387 -48.8952 -1.77193
lowerback 10.0607 0.96751 1.0521
upperback 0.130592 1.46075 1.13052
thorax -5.51386 0.700567 0.374992
lowerneck -21.427 -3.79232 -9.82688
upperneck 26.8463 -3.87608 5.87082
head 12.8522 -1.99129 3.251
rclavicle 6.96989e-014 -1.13307e-014
rhumerus -34.2225 -10.5235 -82.9223
rradius 29.0716
rwrist 11.9772
rhand -10.9593 9.03257
rfingers 7.12502
rthumb 15.0597 -20.3997
lclavicle 6.96989e-014 -1.13307e-014
lhumerus -37.1385 5.78549 84.2892
lradius 31.225
lwrist -10.5638
lhand -17.0771 26.8918
lfingers 7.12502
lthumb 9.16094 56.6729
rfemur -6.27299 1.58169 27.791
rtibia 30.7721
rfoot -21.9045 -4.71452
rtoes 5.03737
lfemur -19.4928 -1.93532 -17.849
ltibia 51.4106
lfoot -12.669 -1.31747
ltoes -3.93579
135
root 14.2414 17.9842 -10.0013 2.36954 -49.0214 -2.02146
lowerback 10.2224 1.00567 1.11099
upperback 0.124598 1.52812 1.26108
thorax -5.6134 0.732883 0.465515
lowerneck -21.417 -3.76482 -9.71883
upperneck 26.85 -3.8157 5.67623
head 12.8391 -1.97982 3.16678
rclavicle 3.23025e-015 -2.74323e-014
rhumerus -34.3138 -10.2498 -82.7842
rradius 29.0561
rwrist 12.1854
rhand -10.9753 9.26519
rfingers 7.12502
rthumb 15.0442 -20.1682
lclavicle 3.23025e-015 -2.74323e-014
lhumerus -37.2474 6.03439 84.2681
lradius 31.2429
lwrist -10.7005
lhand -17.1143 26.9557
lfingers 7.12502
lthumb 9.12501 56.7383
rfemur -6.01003 1.52628 27.9735
rtibia 30.4797
rfoot -21.91 -4.52548
rtoes 5.38799
lfemur -20.0182 -1.99047 -17.6146
ltibia 51.6783
lfoot -12.7855 -1.77403
ltoes -3.15503
136
root 14.2162 17.9857 -9.98711 2.39832 -49.1094 -2.08173
lowerback 10.0825 1.14942 1.52265
upperback 0.375566 1.74653 1.06542
thorax -5.25284 0.829475 0.00321872
lowerneck -21.5241 -3.92813 -9.73564
upperneck 26.6353 -4.09478 5.91735
head 12.8063 -2.06456 3.21038
rclavicle -1.0056e-013 3.18055e-015
rhumerus -34.0294 -10.8127 -82.824
rradius 29.0019
rwrist 12.3766
rhand -10.9904 9.39132
rfingers 7.12502
rthumb 15.0297 -20.0432
lclavicle -1.0056e-013 3.18055e-015
lhumerus -36.8398 5.71797 84.1641
lradius 31.2329
lwrist -10.9636
lhand -16.7564 26.7811
lfingers 7.12502
lthumb 9.4704 56.5483
rfemur -5.77674 1.36033 28.0015
rtibia 30.2768
rfoot -22.0479 -4.27515
rtoes 5.94175
lfemur -20.5615 -1.83027 -17.529
ltibia 51.8204
lfoot -12.9022 -2.29435
ltoes -2.88294
137
root 14.1922 17.9873 -9.97422 2.32293 -49.0627 -1.96337
lowerback 10.3511 1.11989 1.36715
upperback 0.276205 1.70191 1.14518
thorax -5.51546 0.810126 0.173543
lowerneck -21.3281 -3.83248 -9.79831
upperneck 26.6592 -3.94987 5.88872
head 12.763 -2.01538 3.23643
rclavicle 7.52897e-014 2.38542e-015
rhumerus -34.1913 -10.4345 -82.7234
rradius 29.0315
rwrist 12.1536
rhand -10.9721 9.09636
rfingers 7.12502
rthumb 15.0474 -20.3368
lclavicle 7.52897e-014 2.38542e-015
lhumerus -37.1846 6.09458 84.1397
lradius 31.3552
lwrist -11.2047
lhand -16.6288 27.0163
lfingers 7.12502
lthumb 9.59353 56.7778
rfemur -5.60096 1.17317 27.9183
rtibia 30.1042
rfoot -22.1591 -4.0547
rtoes 6.24175
lfemur -21.1564 -1.73381 -17.5809
ltibia 51.8241
lfoot -12.9804 -2.8037
ltoes -3.28455
138
root 14.1637 17.9912 -9.96003 2.10318 -49.0747 -1.71664
lowerback 10.3827 1.15943 1.40224
upperback 0.379599 1.74941 1.01672
thorax -5.41901 0.831679 0.0131115
lowerneck -21.2234 -3.8574 -9.845
upperneck 26.5534 -4.00538 5.98649
head 12.7077 -2.03103 3.27102
rclavicle 7.74018e-014 -1.11319e-014
rhumerus -34.1448 -10.3641 -82.7747
rradius 29.0802
rwrist 11.9406
rhand -11.1426 8.77282
rfingers 7.12502
rthumb 14.8831 -20.6726
lclavicle 7.74018e-014 -1.11319e-014
lhumerus -37.1522 6.06213 84.1013
lradius 31.434
lwrist -11.188
lhand -16.7243 27.3968
lfingers 7.12502
lthumb 9.50135 57.1626
rfemur -5.34878 1.06438 27.7503
rtibia 29.9161
rfoot -22.1361 -3.93579
rtoes 5.82158
lfemur -21.5945 -1.72558 -17.7252
ltibia 51.6517
lfoot -13.1518 -3.15158
ltoes -2.75715
